<svg width="237" height="96" viewBox="0 0 237 96" fill="none" xmlns="http://www.w3.org/2000/svg"><g clip-path="url(#clip0_4_166)"><path d="M56.9607 0.0595215C58.9022 0.265848 60.8127 0.700345 62.6525 1.35402C66.6637 2.83588 69.4827 5.6463 71.5578 9.30268C72.8438 11.5737 73.5053 14.0321 73.8516 16.5927C73.9977 17.8334 74.0603 19.0824 74.039 20.3315V53.0345C74.039 53.6222 74.039 53.6278 73.44 53.6278H59.6774C58.9677 53.6278 59.016 53.6591 59.016 52.9579C59.016 42.7155 59.016 32.473 59.016 22.2306C59.0347 21.1825 58.9395 20.1355 58.7321 19.1079C58.0508 16.0165 55.7996 14.0577 52.6343 13.7994C51.6604 13.7109 50.6786 13.7877 49.7302 14.0265C46.8914 14.7674 45.0121 16.9703 44.6885 19.9511C44.6068 20.6958 44.566 21.4445 44.5665 22.1937C44.5665 32.3907 44.5665 42.5877 44.5665 52.7847C44.5665 53.7442 44.6686 53.6137 43.7318 53.6137C39.2617 53.6137 34.7887 53.6137 30.3128 53.6137C29.4612 53.6137 29.5548 53.6931 29.5548 52.8387C29.5548 42.6189 29.5548 32.3992 29.5548 22.1795C29.5856 21.0213 29.4615 19.8642 29.1858 18.7389C28.3881 15.8348 26.2079 14.0407 23.2243 13.7994C22.2288 13.7024 21.2241 13.7793 20.2549 14.0265C17.5779 14.7504 16.0222 16.5416 15.4119 19.1988C15.2053 20.1775 15.1101 21.1765 15.128 22.1767C15.128 32.351 15.128 42.5253 15.128 52.6996C15.128 53.7471 15.2643 53.6108 14.2395 53.6108C9.49298 53.6108 4.74649 53.6108 0 53.6108V0.61593C0.24621 0.439102 0.552291 0.36666 0.851642 0.414373C5.23287 0.414373 9.61315 0.414373 13.9925 0.414373C14.9236 0.414373 15.0485 0.553475 15.0627 1.4846C15.0627 1.9161 15.0627 2.33625 15.0627 2.7791C15.0627 3.25886 15.233 3.27021 15.5794 3.03459C16.3567 2.522 17.1708 2.0675 18.0151 1.6748C19.976 0.667686 22.1318 0.0972552 24.3343 0.0027462H28.2916C32.3624 0.167397 35.8371 1.72874 38.7952 4.48522C39.1387 4.80601 39.3941 5.36526 39.8455 5.38513C40.2969 5.405 40.5467 4.86846 40.893 4.58458C43.817 2.18579 47.1015 0.610251 50.8743 0.121976C51.4562 0.0453278 52.0439 0.0339731 52.6315 0.0027462H56.4128C56.5973 0.0226179 56.7875 -0.0426756 56.9607 0.0595215Z" fill="#EE752D"/><path d="M236.416 28.1411L224.087 46.6672C222.778 48.6345 221.464 50.5961 220.175 52.5719C220.082 52.7364 219.944 52.8706 219.777 52.9587C219.61 53.0468 219.421 53.085 219.233 53.0687C209.267 53.0555 199.299 53.0555 189.329 53.0687H188.809C188.715 52.8132 188.877 52.6826 188.962 52.535C193.734 44.522 198.506 36.5071 203.279 28.4903C203.341 28.336 203.45 28.2045 203.589 28.1137C203.729 28.0228 203.893 27.9769 204.059 27.9822C214.779 27.9992 225.496 28.0049 236.212 27.9992C236.28 27.9992 236.348 27.9992 236.416 27.9992V28.1411Z" fill="#009ED6"/><path d="M172.977 53.6194H172.259C166.74 53.6194 161.222 53.6194 155.706 53.6194C155.487 53.6434 155.266 53.6 155.073 53.495C154.88 53.39 154.723 53.2283 154.624 53.0318C152.026 48.7679 149.411 44.5144 146.781 40.2713C146.67 40.0271 146.508 39.8094 146.306 39.6326C146.173 39.8342 146.023 40.03 145.912 40.2316C143.325 44.4747 140.742 48.7215 138.165 52.9722C138.067 53.181 137.908 53.3551 137.708 53.4712C137.509 53.5873 137.279 53.64 137.049 53.6222C131.53 53.5967 126.012 53.6081 120.493 53.6081H119.784C119.845 53.3495 119.97 53.1104 120.147 52.9125C125.908 44.3961 131.67 35.8797 137.432 27.3633C138.105 26.3669 138.1 26.7302 137.432 25.7451C131.919 17.6072 126.401 9.47405 120.876 1.34559C120.729 1.127 120.593 0.899898 120.442 0.658599C120.67 0.573367 120.916 0.546057 121.157 0.579113C126.699 0.579113 132.229 0.579113 137.779 0.56208C137.998 0.543483 138.218 0.593607 138.408 0.705507C138.597 0.817406 138.748 0.985541 138.838 1.18662C141.174 5.18366 143.536 9.16651 145.889 13.1522C146.014 13.3651 146.148 13.5723 146.284 13.7966C146.568 13.6689 146.622 13.4105 146.744 13.2061C149.159 9.17881 151.569 5.14581 153.974 1.10713C154.17 0.777829 154.352 0.564918 154.8 0.564918C160.523 0.584789 166.243 0.564918 171.966 0.564918C172.057 0.564918 172.145 0.56492 172.25 0.584791C172.25 0.868672 172.054 1.039 171.924 1.2292C166.678 8.97347 161.429 16.714 156.177 24.4507C155.834 24.9588 155.484 25.4641 155.147 25.9751C154.704 26.6422 154.681 26.4123 155.166 27.1305C157.046 29.9163 158.928 32.6993 160.813 35.4794C164.742 41.2895 168.673 47.0996 172.605 52.9097C172.786 53.1119 172.914 53.3557 172.977 53.6194Z" fill="#EE752D"/><path d="M184.849 1.44214C185.956 3.17381 187.035 4.84871 188.111 6.53496L200.508 25.9269C200.552 26.0064 200.602 26.0823 200.658 26.154C200.917 26.4577 200.891 26.7217 200.681 27.0737C199.883 28.3654 199.117 29.6798 198.339 30.9885C194.147 38.0249 189.953 45.0633 185.757 52.1035C185.676 52.2944 185.557 52.4671 185.408 52.6117C185.195 52.5435 185.124 52.3278 185.028 52.1745C179.375 43.8284 173.727 35.4813 168.083 27.1334C167.714 26.5883 167.714 26.5855 168.083 26.0262L184.403 1.9588C184.515 1.75773 184.666 1.58183 184.849 1.44214Z" fill="#009ED6"/><path d="M236.243 25.1178C236.019 25.1931 235.781 25.2154 235.547 25.1831C225.125 25.1831 214.703 25.1887 204.281 25.2001C204.05 25.2172 203.82 25.1664 203.618 25.0539C203.416 24.9413 203.252 24.7721 203.145 24.567C198.327 16.9969 193.501 9.44091 188.667 1.89914C188.491 1.68918 188.369 1.43989 188.31 1.17241H189.011C199.272 1.17241 209.535 1.17241 219.8 1.17241C220.021 1.15235 220.242 1.19701 220.437 1.30089C220.632 1.40477 220.793 1.56336 220.899 1.7572C225.907 9.35953 230.922 16.9552 235.945 24.5443C236.092 24.7064 236.195 24.904 236.243 25.1178Z" fill="#009ED6"/><path d="M0.147617 87.3956C0.147617 79.8538 0.147617 72.3063 0.147617 64.7532C0.147617 63.7426 0.056775 63.8249 1.04752 63.8249H5.27167C5.85646 63.8249 5.85646 63.8249 5.86498 64.4381C5.86498 64.8469 5.86498 65.2557 5.86498 65.6616C5.86498 65.832 5.97001 65.9114 6.11479 65.744C7.57145 64.3395 9.50006 63.5296 11.5227 63.4729C13.9755 63.3849 16.1358 64.1088 17.7681 66.0278C17.8675 66.1442 17.9328 66.3117 18.1457 66.3742C18.3245 66.2124 18.5232 66.0364 18.7134 65.8547C20.7602 63.9697 23.2016 63.2997 25.9297 63.4871C26.8147 63.538 27.6877 63.7168 28.5215 64.018C31.173 65.0144 32.6435 67.0271 33.3475 69.6956C33.5413 70.4668 33.6367 71.2594 33.6314 72.0546V86.7653C33.6314 86.8789 33.6314 86.9924 33.6314 87.106C33.6314 87.3444 33.5121 87.4268 33.2964 87.4211C33.2055 87.4211 33.1147 87.4211 33.0125 87.4211H28.337C27.7181 87.4211 27.7124 87.4211 27.7124 86.7795C27.7124 82.351 27.7124 77.9234 27.7124 73.4967C27.7419 72.8389 27.6827 72.18 27.5364 71.538C27.051 69.7637 25.5947 68.6679 23.582 68.807C21.257 68.9688 19.8915 70.4252 19.8915 72.7814C19.8631 77.2071 19.8915 81.6356 19.8915 86.0613C19.8915 86.3452 19.8915 86.6518 19.8915 86.947C19.8915 87.2423 19.795 87.4381 19.4231 87.4381C17.7425 87.4381 16.062 87.4381 14.3842 87.4381C13.9385 87.4381 13.93 87.4211 13.9272 86.9044C13.9272 85.0422 13.9272 83.1809 13.9272 81.3205C13.9272 78.6709 13.9272 76.0138 13.9272 73.3491C13.9477 72.7773 13.8971 72.2052 13.7767 71.6458C13.2743 69.636 11.659 68.6764 9.7655 68.807C7.52852 68.9859 6.23118 70.3741 6.10911 72.6224C6.08924 72.963 6.08924 73.3037 6.08924 73.6444C6.08924 77.9366 6.08924 82.227 6.08924 86.5155C6.08924 86.6972 6.08924 86.8817 6.08924 87.0606C6.08924 87.3104 6.0126 87.441 5.74007 87.4381C3.87497 87.4097 2.01271 87.4892 0.147617 87.3956Z" fill="#009ED6"/><path d="M121.214 63.7398C121.163 64.0099 121.036 64.2599 120.848 64.4608C118.52 67.8996 116.19 71.3374 113.856 74.7742C113.391 75.4612 113.388 75.2398 113.856 75.9381C116.294 79.5491 118.735 83.1591 121.18 86.7682C121.332 86.9294 121.444 87.1238 121.507 87.336C121.393 87.4779 121.251 87.4353 121.123 87.4353C119.105 87.4353 117.084 87.4353 115.063 87.4353C114.9 87.4463 114.739 87.4093 114.597 87.3291C114.456 87.2488 114.341 87.1288 114.268 86.9839C113.067 84.9968 111.849 83.038 110.631 81.0679C110.501 80.8606 110.421 80.6108 110.183 80.4774C109.99 80.6693 109.833 80.8943 109.72 81.1417C108.533 83.0777 107.353 85.0166 106.18 86.9584C106.007 87.2423 105.851 87.4495 105.453 87.4467C103.341 87.4268 101.232 87.4467 99.1198 87.4467C99.0441 87.4368 98.9692 87.4216 98.8956 87.4012C98.966 87.1616 99.0903 86.9412 99.2589 86.7568C101.695 83.1383 104.133 79.5254 106.575 75.9183C107.015 75.2682 107.009 75.43 106.589 74.814C104.268 71.3941 101.948 67.9762 99.628 64.5602C99.4775 64.3359 99.3441 64.106 99.1993 63.8959C99.3157 63.666 99.4974 63.7426 99.6393 63.7426C101.626 63.7426 103.636 63.7426 105.635 63.7426C105.813 63.7284 105.991 63.7707 106.144 63.8634C106.297 63.9562 106.417 64.0947 106.487 64.2593C107.545 66.0875 108.627 67.8986 109.7 69.7155C109.848 69.9624 110.001 70.2094 110.151 70.4592C110.328 70.3269 110.463 70.148 110.543 69.9426C111.679 68.0548 112.814 66.1698 113.927 64.2649C114.005 64.0931 114.134 63.9497 114.297 63.8546C114.459 63.7595 114.648 63.7174 114.835 63.7341C116.942 63.754 119.054 63.7398 121.214 63.7398Z" fill="#009ED6"/><path d="M182.115 84.4063L185.965 80.554C188.236 82.5696 190.955 82.9443 193.882 82.5043C194.492 82.413 195.07 82.1754 195.568 81.8116C195.885 81.5854 196.129 81.2711 196.268 80.9078C196.408 80.5444 196.438 80.1479 196.355 79.7677C196.305 79.416 196.152 79.0869 195.916 78.8218C195.679 78.5566 195.37 78.3672 195.026 78.2773C194.132 77.9764 193.192 77.9934 192.272 77.8799C190.921 77.7181 189.553 77.6925 188.227 77.349C188.009 77.2922 187.787 77.2383 187.571 77.1702C185.13 76.4037 183.637 74.8083 183.313 72.2221C182.956 69.2385 183.901 66.8284 186.436 65.1052C187.38 64.4693 188.442 64.0274 189.559 63.8051C192.62 63.1625 195.801 63.4117 198.725 64.5233C199.591 64.8703 200.395 65.3565 201.104 65.9626C201.351 66.1641 201.388 66.3061 201.144 66.553C200.11 67.575 199.094 68.6112 198.075 69.6502C197.89 69.8375 197.746 69.9028 197.507 69.7155C196.187 68.6963 194.62 68.4607 193.022 68.3557C192.364 68.3006 191.702 68.337 191.055 68.4635C190.607 68.5476 190.182 68.7235 189.806 68.9802C189.48 69.1938 189.225 69.4995 189.073 69.8584C188.921 70.2173 188.88 70.6132 188.954 70.9958C189.062 71.7906 189.576 72.2306 190.3 72.4578C191.197 72.7416 192.136 72.7246 193.059 72.8325C194.407 72.9886 195.776 73.0227 197.098 73.4002C198.572 73.8062 199.895 74.4705 200.846 75.7252C201.961 77.1986 202.265 78.8933 202.123 80.6846C201.859 83.8073 200.059 85.7604 197.229 86.8789C196.151 87.3079 195.014 87.5665 193.857 87.6454C191.449 87.8157 189.031 87.8015 186.697 87.1287C184.963 86.627 183.385 85.6898 182.115 84.4063Z" fill="#009ED6"/><path d="M211.27 87.7221C209.561 87.7544 207.857 87.5217 206.22 87.0322C204.721 86.5577 203.35 85.7502 202.208 84.6703C201.851 84.3325 201.848 84.3212 202.186 83.9833C203.256 82.9018 204.34 81.8344 205.402 80.7471C205.632 80.5143 205.768 80.5228 206.007 80.7471C207.483 82.0643 209.263 82.581 211.193 82.6718C212.214 82.7611 213.242 82.665 214.228 82.3879C214.78 82.2373 215.282 81.9435 215.684 81.5363C215.903 81.3052 216.063 81.0251 216.15 80.7195C216.238 80.4138 216.251 80.0916 216.189 79.7798C216.126 79.468 215.99 79.1757 215.791 78.9276C215.592 78.6795 215.336 78.4828 215.045 78.354C214.535 78.1614 214 78.0457 213.456 78.0105C211.835 77.8373 210.2 77.7607 208.59 77.474C207.697 77.3206 206.834 77.0244 206.035 76.5968C205.404 76.278 204.847 75.8319 204.397 75.2866C203.947 74.7413 203.616 74.1086 203.423 73.4287C202.606 70.5898 203.196 67.6346 205.518 65.6815C206.562 64.8127 207.792 64.195 209.112 63.8761C210.548 63.5284 212.029 63.4086 213.501 63.5212C214.976 63.5753 216.438 63.8244 217.847 64.2621C218.927 64.6101 219.933 65.1528 220.817 65.8632C221.257 66.2351 221.26 66.2436 220.873 66.6325C219.903 67.6205 218.926 68.5998 217.955 69.5877C217.768 69.7779 217.623 69.9284 217.333 69.707C216.033 68.7077 214.495 68.4579 212.913 68.3529C212.211 68.2894 211.504 68.3286 210.813 68.4693C210.321 68.5677 209.86 68.7839 209.47 69.0995C209.193 69.3219 208.983 69.6153 208.86 69.9484C208.738 70.2814 208.708 70.6415 208.774 70.9901C208.825 71.3303 208.974 71.6482 209.204 71.9042C209.433 72.1601 209.733 72.3428 210.066 72.4294C210.98 72.7303 211.943 72.7133 212.888 72.8268C214.216 72.9773 215.556 73.0312 216.862 73.3634C220.959 74.4109 222.37 77.5449 221.898 81.1332C221.49 84.2303 219.508 86.0074 216.695 86.9982C215.207 87.5262 213.674 87.7221 211.27 87.7221Z" fill="#009ED6"/><path d="M68.455 69.1959V57.6136C68.455 56.7989 68.4295 56.8755 69.1903 56.8755C70.7573 56.8755 72.313 56.8755 73.8913 56.8755C74.3739 56.8755 74.3824 56.8755 74.3881 57.3666C74.3881 58.2183 74.3881 59.0472 74.3881 59.8875C74.3881 66.5417 74.3825 73.1958 74.3711 79.85C74.3602 80.2129 74.3735 80.5761 74.4108 80.9373C74.4358 81.3046 74.5901 81.6513 74.8463 81.9158C75.1024 82.1803 75.444 82.3455 75.8104 82.3822C76.5769 82.5185 77.3518 82.4418 78.124 82.4589C78.7258 82.4589 78.7315 82.4589 78.7343 83.055C78.7343 84.3495 78.7343 85.644 78.7343 86.9385C78.7343 87.4183 78.7201 87.4296 78.2375 87.4325C77.0566 87.4325 75.8757 87.4552 74.6947 87.4126C71.3563 87.2877 68.9405 85.0393 68.5175 81.735C68.456 81.2396 68.4257 80.7409 68.4266 80.2417C68.4266 76.5627 68.4266 72.8836 68.4266 69.2045L68.455 69.1959Z" fill="#009ED6"/><path d="M151.357 65.903C154.99 62.4453 160.566 62.9733 162.814 65.6844C162.797 65.8632 162.655 65.9541 162.53 66.0619L158.84 69.7893C158.369 70.2662 158.394 70.1981 157.988 69.8063C156.591 68.4579 154.196 68.5175 152.878 69.6899C152.09 70.3929 151.604 71.3734 151.521 72.4265C151.486 72.8343 151.474 73.2438 151.484 73.6529C151.484 77.9225 151.484 82.1911 151.484 86.4588C151.484 86.6177 151.484 86.7767 151.484 86.9357C151.484 87.4211 151.467 87.4325 150.988 87.4353C149.568 87.4353 148.126 87.4353 146.695 87.4353C145.543 87.4353 145.543 87.4353 145.543 86.2998C145.543 79.0552 145.543 71.8105 145.543 64.5659C145.543 63.6773 145.449 63.737 146.394 63.737H150.619C151.343 63.737 151.343 63.737 151.345 64.4921L151.357 65.903Z" fill="#009ED6"/><path d="M58.8712 75.6315C58.8712 71.977 58.8712 68.3235 58.8712 64.6709C58.8712 64.5346 58.8712 64.387 58.8712 64.2621C58.8712 63.7511 58.8712 63.7426 59.4106 63.7397H64.1769C64.7617 63.7397 64.7703 63.7397 64.7703 64.3529C64.7703 67.0025 64.7703 69.6577 64.7703 72.3186C64.7703 77.0821 64.7703 81.8476 64.7703 86.6149C64.7703 87.5403 64.8583 87.4324 63.9186 87.4353C62.4197 87.4353 60.9218 87.4353 59.4248 87.4353C58.8797 87.4353 58.8712 87.4353 58.8712 86.8675C58.8674 83.1222 58.8674 79.3769 58.8712 75.6315Z" fill="#009ED6"/><path d="M61.8633 56.8897C62.7149 56.8897 63.541 56.8897 64.3813 56.8897C64.7305 56.8897 64.8526 57.0004 64.8497 57.3581C64.8327 58.6952 64.8497 60.0323 64.8497 61.3693C64.8497 61.6731 64.7759 61.8207 64.4353 61.8179C62.6903 61.8065 60.9454 61.8065 59.2005 61.8179C58.8797 61.8179 58.7605 61.7157 58.7633 61.3864C58.7633 60.0266 58.7775 58.6668 58.7633 57.307C58.7633 56.9635 58.9138 56.8869 59.2147 56.8925C60.0976 56.8982 60.9804 56.8897 61.8633 56.8897Z" fill="#009ED6"/><path d="M123.613 30.9856C123.562 28.0361 123.732 25.0837 123.471 22.1342C123.22 18.9381 122.425 15.8082 121.121 12.8797C118.989 8.18998 115.727 4.5847 111.051 2.29945C108.34 0.97373 105.459 0.312287 102.475 0.0539551C102.25 0.0879281 102.022 0.0879281 101.797 0.0539551H98.3704H97.9644C97.0901 0.190218 96.2101 0.292416 95.3414 0.462744C89.4281 1.62382 84.7782 4.68405 81.5079 9.76552C78.8933 13.8279 77.6897 18.3586 77.2497 23.1221C76.9813 26.2239 77.0184 29.3446 77.3604 32.4391C77.662 35.4923 78.4149 38.4838 79.5945 41.316C81.7066 46.3067 85.2097 49.9403 90.2117 52.1035C93.1527 53.3249 96.287 54.015 99.469 54.1418C101.827 54.2847 104.194 54.2059 106.538 53.9062C109.572 53.5359 112.506 52.5836 115.179 51.1014C117.836 49.6082 120.116 47.6381 122.222 45.455C122.361 45.3131 122.551 45.2052 122.594 44.9469L113.285 35.8627C112.607 36.5128 111.985 37.1402 111.332 37.7335C109.853 39.0819 108.193 40.1294 106.223 40.6234C104.32 41.0817 102.354 41.2179 100.406 41.0265C98.857 40.9195 97.3602 40.4235 96.0539 39.5844C93.6949 38.0372 92.4912 35.7832 92.0796 33.0551C91.9518 32.2177 91.949 32.2177 92.8006 32.2177H122.716C122.898 32.2177 123.079 32.2177 123.261 32.2177C123.528 32.2375 123.624 32.1155 123.616 31.8571C123.607 31.5988 123.619 31.2809 123.613 30.9856ZM92.0711 21.1491C92.389 16.6553 95.0632 13.0585 99.9686 12.8882C105.178 12.7065 108.221 16.1358 108.661 21.1491H92.0711Z" fill="#EE752D"/><path d="M142.511 71.6288C142.432 70.2447 142.114 68.8847 141.571 67.609C140.969 66.2219 139.896 65.092 138.542 64.4182C137.424 63.8561 136.199 63.5396 134.948 63.4899C132.677 63.3736 130.625 63.8732 128.956 65.5254C128.854 65.6304 128.783 65.8092 128.55 65.778C128.453 65.1393 128.595 64.4835 128.47 63.8448C126.929 63.8448 125.384 63.8448 123.84 63.8448C122.838 63.8448 122.912 63.7426 122.912 64.7447V95.3158C122.912 95.9915 122.912 95.9971 123.585 95.9971C125.061 95.9971 126.537 95.9971 128.01 95.9971C128.615 95.9971 128.615 95.9971 128.626 95.3953C128.626 95.259 128.626 95.1114 128.626 94.9865V86.1351C128.615 85.932 128.626 85.7282 128.66 85.5276C128.697 85.3686 128.814 85.4112 128.902 85.5276C129.592 86.3483 130.499 86.9583 131.519 87.2877C133.232 87.8506 135.073 87.8999 136.814 87.4296C139.334 86.7994 141.072 85.3005 141.884 82.7882C142.218 81.7522 142.428 80.6801 142.508 79.5945C142.716 76.9434 142.716 74.2801 142.511 71.6288ZM136.55 78.5612C136.477 79.1236 136.341 79.676 136.144 80.2077C135.963 80.7614 135.63 81.2534 135.184 81.6281C134.738 82.0028 134.196 82.2454 133.62 82.3283C133.015 82.4362 132.396 82.4362 131.792 82.3283C131.215 82.2413 130.675 81.9947 130.231 81.6164C129.788 81.2381 129.459 80.7433 129.282 80.1878C128.982 79.3551 128.813 78.4806 128.783 77.596C128.751 76.9175 128.783 76.2362 128.783 75.5549C128.7 74.306 128.783 73.0518 129.03 71.8247C129.126 71.4046 129.268 70.9963 129.452 70.6068C129.642 70.1918 129.924 69.826 130.278 69.5375C130.631 69.249 131.046 69.0457 131.491 68.9433C132.308 68.738 133.163 68.738 133.98 68.9433C134.423 69.0511 134.835 69.2585 135.185 69.5497C135.536 69.841 135.815 70.2084 136.002 70.6239C136.398 71.4926 136.617 72.4316 136.646 73.386C136.778 75.1102 136.746 76.8431 136.55 78.5612Z" fill="#009ED6"/><path d="M55.2205 72.066C55.2205 71.6572 55.2205 71.2484 55.1893 70.8425C55.0388 69.0796 54.5193 67.4586 53.2759 66.1442C52.0779 64.8753 50.5478 64.2167 48.8786 63.8505C46.8242 63.4285 44.7148 63.3441 42.6332 63.6007C40.4611 63.794 38.4352 64.7767 36.9386 66.3628C36.5752 66.7404 36.5695 66.7461 36.9386 67.1066C37.9236 68.0775 38.9257 69.0426 39.9051 70.0107C40.3877 70.4848 40.3281 70.4479 40.7341 70.0107C41.3785 69.2968 42.2354 68.8091 43.1783 68.6197C44.3194 68.3996 45.492 68.3996 46.6331 68.6197C48.1462 68.9035 48.9638 69.7552 49.2448 71.2825C49.3114 71.7772 49.3342 72.2769 49.3129 72.7757C49.3129 73.369 49.3129 73.3775 48.7225 73.3775H43.6126C42.5874 73.3776 41.5675 73.5239 40.5836 73.8119C38.0542 74.5499 36.3424 76.1028 35.7576 78.7485C35.5602 79.6827 35.539 80.6455 35.6952 81.5874C36.1238 84.2899 37.4808 86.2657 40.1464 87.1798C41.6875 87.67 43.3159 87.823 44.9213 87.6283C46.4499 87.5023 47.8912 86.8641 49.012 85.8172C49.0636 85.7524 49.1281 85.699 49.2014 85.6604C49.2747 85.6218 49.3552 85.5988 49.4378 85.5929C49.4378 86.0585 49.4378 86.4871 49.4378 86.913C49.4378 87.4353 49.4378 87.4438 49.963 87.4467C51.5263 87.4467 53.0923 87.4467 54.6613 87.4467C55.1836 87.4467 55.1836 87.4467 55.195 86.9272C55.195 86.8363 55.195 86.7455 55.195 86.6433L55.2205 72.066ZM49.3271 78.6861C49.3271 79.0949 49.2845 79.5008 49.2505 79.9096C49.1029 81.7009 47.6267 82.5838 46.3322 82.7484C45.4773 82.8762 44.6089 82.8848 43.7517 82.774C41.9122 82.5156 40.9129 81.0224 41.4324 79.2766C41.531 78.9264 41.711 78.6045 41.9576 78.3371C42.2043 78.0697 42.5107 77.8644 42.8518 77.7379C43.315 77.549 43.8107 77.4526 44.311 77.454C45.8098 77.454 47.3087 77.454 48.8076 77.454C49.2987 77.454 49.3016 77.4682 49.3158 77.9366C49.3186 78.1865 49.3129 78.4363 49.3129 78.6861H49.3271Z" fill="#009ED6"/><path d="M181.082 70.8198C180.23 67.9355 178.604 65.7099 175.822 64.4012C174.246 63.7225 172.537 63.4119 170.824 63.493C169.11 63.5742 167.438 64.045 165.934 64.8696C163.845 66.1158 162.562 67.9923 161.772 70.2463C161.322 71.5812 161.059 72.9723 160.992 74.3796C160.853 76.8238 161.043 79.234 161.897 81.5533C162.984 84.5113 165.065 86.4105 168.103 87.2536C169.69 87.6522 171.33 87.8006 172.963 87.6936C175.834 87.6138 178.56 86.4147 180.56 84.3524C180.906 84.006 180.912 83.9947 180.574 83.6625C179.627 82.7163 178.67 81.7794 177.701 80.8521C177.346 80.5086 177.326 80.5001 176.954 80.8663C175.594 82.2062 173.928 82.7428 172.063 82.7314C170.987 82.7314 169.937 82.5525 169.008 81.9479C167.529 80.9912 166.916 79.5604 166.786 77.8685C166.766 77.5846 166.837 77.4285 167.152 77.4512C167.308 77.4512 167.47 77.4512 167.629 77.4512H181.042C181.61 77.4512 181.61 77.4512 181.61 76.8976C181.61 76.239 181.61 75.5804 181.61 74.9105C181.628 73.5288 181.451 72.1515 181.082 70.8198ZM174.598 73.3889H171.26C169.942 73.3889 168.625 73.3889 167.308 73.3889C166.78 73.3889 166.74 73.3605 166.806 72.8552C166.87 72.1288 167.062 71.4195 167.373 70.7601C168.202 69.0569 169.789 68.2648 171.631 68.4096C173.84 68.5828 175.242 69.9057 175.663 72.1001C175.887 73.3889 175.887 73.3889 174.598 73.3889Z" fill="#009ED6"/><path d="M99.0602 74.2547C99.0405 72.8908 98.8077 71.5384 98.3704 70.2463C97.4648 67.6176 95.8666 65.5793 93.2918 64.4097C91.2425 63.5014 88.9661 63.2352 86.7625 63.6461C85.1842 63.8872 83.6954 64.5337 82.4418 65.5225C80.7016 66.8994 79.6598 68.7304 79.0353 70.8226C78.3312 73.21 78.2943 75.6486 78.547 78.107C78.6715 79.3503 78.9646 80.5708 79.4185 81.735C80.4916 84.4659 82.4134 86.2771 85.2239 87.1543C86.9272 87.688 88.6986 87.7646 90.4757 87.6908C93.3505 87.6038 96.0763 86.3918 98.0666 84.3154C98.3732 84.006 98.3789 83.9947 98.0666 83.6824C97.1204 82.7607 96.1741 81.8428 95.2278 80.9288C94.8048 80.52 94.7963 80.5143 94.3762 80.906C93.5011 81.7768 92.3845 82.3644 91.1712 82.5923C90.1875 82.7819 89.1776 82.7915 88.1904 82.6207C85.6809 82.1267 84.4035 80.2418 84.2388 77.8259C84.2189 77.5619 84.324 77.4512 84.5851 77.4626C84.7441 77.4626 84.9031 77.4626 85.0621 77.4626H98.4783C99.0602 77.4626 99.0659 77.4626 99.0659 76.8522C99.0687 75.9807 99.0772 75.1177 99.0602 74.2547ZM92.7609 73.386C91.421 73.386 90.0811 73.386 88.7411 73.386C87.4012 73.386 86.0613 73.386 84.7214 73.386C84.2189 73.386 84.2161 73.3718 84.27 72.8892C84.3392 72.2317 84.4987 71.5869 84.7441 70.973C85.5049 69.1307 87.1997 68.2591 89.0506 68.4039C91.5345 68.597 93.1867 70.4252 93.2265 72.946C93.2208 73.3718 93.2208 73.386 92.7609 73.386Z" fill="#009ED6"/></g><defs><clipPath id="clip0_4_166"><rect width="236.416" height="96" fill="white"/></clipPath></defs></svg>